<svg width="2754" height="2560" viewBox="0 0 2754 2560" fill="none" xmlns="http://www.w3.org/2000/svg">
<path d="M1009.07 396.933L1008.67 443.333L986.667 443.467C974.534 443.467 953.734 443.733 940.4 443.733L916 444V490V536H822.667H729.334V582V628H683.333H637.333V772.667V917.333H683.333H729.334V872V826.667H822.667H916V1143.33V1460H962.667H1009.33V1505.33V1550.67H1056H1102.67V1596V1641.33L1149.07 1641.6L1195.33 1642L1195.73 1822.27L1196 2002.67H1126H1056V2032.67V2062.67H1032.67H1009.33V2102.67V2142.67H1044H1078.67V2118.67V2094.67H1102H1125.33V2140V2185.33H1160.67H1196V2140V2094.67H1242.67H1289.33V2118.67V2142.67H1335.33H1381.33V2102.67V2062.67H1335.33H1289.33V1942.67V1822.67H1335.73H1382L1381.87 1778V1733.33H1474.93H1568V1778V1822.67H1614H1660V1912.67V2002.67H1591.33H1522.67V2032.67V2062.67H1498.67H1474.67V2102.67V2142.67H1509.33H1544V2118.67V2094.67H1568H1592V2140V2185.33H1626.67H1661.33V2140V2094.67H1707.33H1753.33V2118.67V2142.67H1800H1846.67V2102.67V2062.67H1800H1753.33V1898V1733.33H1800H1846.67V1778V1822.67H1986.67H2126.67V1732V1641.33H2080H2033.33V1506V1370.67H1987.33H1941.33L1941.07 1280.27L1940.67 1190L1894.4 1189.6L1848 1189.33L1847.73 1144.27L1847.33 1099.33L1800.4 1098.93L1753.33 1098.67V1052.67V1006.67H1707.33H1661.33V962V917.333H1614.67H1568V772.667V628H1521.33H1474.67V582V536H1521.33H1568V443.333V350.667H1288.67H1009.33L1009.07 396.933ZM1102.4 582.933L1102.67 629.333H1149.33H1196V582.667V536H1288.67H1381.33V582.667V629.333H1428H1474.67V818V1006.67L1381.87 1006.93L1289.07 1007.33L1289.2 1052.93L1289.33 1098.67H1149.33H1009.33V962.667V826.667H1056H1102.67V774V721.333H1056H1009.33V674.667V628H962.667H916V582.933C916 558.133 916.4 537.333 916.934 536.933C917.334 536.4 959.2 536.133 1009.87 536.267L1102 536.667L1102.4 582.933Z" fill="#D99748"/>
</svg>
