<svg width="2754" height="2602" viewBox="0 0 2754 2602" fill="currentColor" xmlns="http://www.w3.org/2000/svg">
<path d="M1009.07 438.933L1008.67 485.333L986.667 485.467C974.534 485.467 953.734 485.733 940.401 485.733L916.001 486V532V578H822.667H729.334V624V670H683.334H637.334V814.667V959.333H683.334H729.334V914V868.667H822.667H916.001V1185.33V1502H962.667H1009.33V1547.33V1592.67H1056H1102.67V1638V1683.33L1149.07 1683.6L1195.33 1684L1195.73 1864.27L1196 2044.67H1126H1056V2074.67V2104.67H1032.67H1009.33V2144.67V2184.67H1044H1078.67V2160.67V2136.67H1102H1125.33V2182V2227.33H1160.67H1196V2182V2136.67H1242.67H1289.33V2160.67V2184.67H1335.33H1381.33V2144.67V2104.67H1335.33H1289.33V1984.67V1864.67H1335.73H1382L1381.87 1820V1775.33H1474.93H1568V1820V1864.67H1614H1660V1954.67V2044.67H1591.33H1522.67V2074.67V2104.67H1498.67H1474.67V2144.67V2184.67H1509.33H1544V2160.67V2136.67H1568H1592V2182V2227.33H1626.67H1661.33V2182V2136.67H1707.33H1753.33V2160.67V2184.67H1800H1846.67V2144.67V2104.67H1800H1753.33V1940V1775.33H1800H1846.67V1820V1864.67H1986.67H2126.67V1774V1683.33H2080H2033.33V1548V1412.67H1987.33H1941.33L1941.07 1322.27L1940.67 1232L1894.4 1231.6L1848 1231.33L1847.73 1186.27L1847.33 1141.33L1800.4 1140.93L1753.33 1140.67V1094.67V1048.67H1707.33H1661.33V1004V959.333H1614.67H1568V814.667V670H1521.33H1474.67V624V578H1521.33H1568V485.333V392.667H1288.67H1009.33L1009.07 438.933ZM1102.4 624.933L1102.67 671.333H1149.33H1196V624.667V578H1288.67H1381.33V624.667V671.333H1428H1474.67V860V1048.67L1381.87 1048.93L1289.07 1049.33L1289.2 1094.93L1289.33 1140.67H1149.33H1009.33V1004.67V868.667H1056H1102.67V816V763.333H1056H1009.33V716.667V670H962.667H916.001V624.933C916.001 600.133 916.401 579.333 916.934 578.933C917.334 578.4 959.201 578.133 1009.87 578.267L1102 578.667L1102.4 624.933Z" fill="currentColor"/>
</svg>
